<svg xmlns="http://www.w3.org/2000/svg" xmlns:xlink="http://www.w3.org/1999/xlink" width="1800" zoomAndPan="magnify" viewBox="0 0 1350 374.999991" height="500" preserveAspectRatio="xMidYMid meet" version="1.0"><defs><g/><clipPath id="26b08c1366"><path d="M 145 160 L 385 160 L 385 336.75 L 145 336.75 Z M 145 160 " clip-rule="nonzero"/></clipPath><clipPath id="a9950dac0a"><path d="M 90.609375 37.5 L 439.359375 37.5 L 439.359375 238 L 90.609375 238 Z M 90.609375 37.5 " clip-rule="nonzero"/></clipPath></defs><g clip-path="url(#26b08c1366)"><path fill="#5e17eb" d="M 358.828125 172.238281 L 358.828125 252.160156 L 265.066406 306.296875 L 171.300781 252.160156 L 171.300781 172.238281 L 145.183594 160.0625 L 145.183594 267.238281 L 265.066406 336.453125 L 384.949219 267.238281 L 384.949219 160.066406 L 358.828125 172.238281 " fill-opacity="1" fill-rule="nonzero"/></g><path fill="#d9d9d9" d="M 344.40625 243.832031 L 265.066406 289.640625 L 185.722656 243.832031 L 185.722656 147.457031 L 265.066406 101.652344 L 344.40625 147.457031 L 344.40625 243.832031 " fill-opacity="1" fill-rule="nonzero"/><g clip-path="url(#a9950dac0a)"><path fill="#5e17eb" d="M 424.300781 208.066406 C 424.300781 205.640625 423.101562 203.507812 421.265625 202.214844 L 421.265625 127.222656 L 439.414062 118.769531 L 265.066406 37.507812 L 90.71875 118.769531 L 265.066406 200.027344 L 412.992188 131.082031 L 412.992188 202.214844 C 411.164062 203.507812 409.96875 205.652344 409.96875 208.066406 C 409.96875 209.464844 410.363281 210.761719 411.054688 211.863281 L 400.144531 237.613281 L 404.882812 237.613281 L 413.097656 219.445312 L 409.199219 237.613281 L 434.125 237.613281 L 423.214844 211.863281 C 423.90625 210.761719 424.300781 209.464844 424.300781 208.066406 " fill-opacity="1" fill-rule="nonzero"/></g><g fill="#3b3b3b" fill-opacity="1"><g transform="translate(504.484015, 244.733552)"><g><path d="M 98.609375 -94.65625 L 98.609375 0 L 79.015625 0 L 79.015625 -11.171875 C 75.921875 -7.273438 71.882812 -4.207031 66.90625 -1.96875 C 61.925781 0.257812 56.628906 1.375 51.015625 1.375 C 43.578125 1.375 36.90625 -0.171875 31 -3.265625 C 25.101562 -6.359375 20.46875 -10.9375 17.09375 -17 C 13.71875 -23.070312 12.03125 -30.40625 12.03125 -39 L 12.03125 -94.65625 L 31.4375 -94.65625 L 31.4375 -41.921875 C 31.4375 -33.441406 33.550781 -26.9375 37.78125 -22.40625 C 42.019531 -17.882812 47.804688 -15.625 55.140625 -15.625 C 62.472656 -15.625 68.285156 -17.882812 72.578125 -22.40625 C 76.867188 -26.9375 79.015625 -33.441406 79.015625 -41.921875 L 79.015625 -94.65625 Z M 98.609375 -94.65625 "/></g></g></g><g fill="#3b3b3b" fill-opacity="1"><g transform="translate(615.970797, 244.733552)"><g><path d="M 51.015625 -96.203125 C 58.347656 -96.203125 64.847656 -94.738281 70.515625 -91.8125 C 76.179688 -88.894531 80.617188 -85.257812 83.828125 -80.90625 L 83.828125 -94.65625 L 103.578125 -94.65625 L 103.578125 1.546875 C 103.578125 10.242188 101.742188 18 98.078125 24.8125 C 94.421875 31.632812 89.125 36.988281 82.1875 40.875 C 75.257812 44.769531 66.988281 46.71875 57.375 46.71875 C 44.550781 46.71875 33.898438 43.710938 25.421875 37.703125 C 16.953125 31.691406 12.144531 23.535156 11 13.234375 L 30.40625 13.234375 C 31.894531 18.148438 35.070312 22.125 39.9375 25.15625 C 44.800781 28.195312 50.613281 29.71875 57.375 29.71875 C 65.28125 29.71875 71.664062 27.3125 76.53125 22.5 C 81.394531 17.6875 83.828125 10.703125 83.828125 1.546875 L 83.828125 -14.265625 C 80.503906 -9.796875 76.007812 -6.039062 70.34375 -3 C 64.675781 0.03125 58.234375 1.546875 51.015625 1.546875 C 42.773438 1.546875 35.242188 -0.539062 28.421875 -4.71875 C 21.609375 -8.90625 16.226562 -14.75 12.28125 -22.25 C 8.332031 -29.75 6.359375 -38.25 6.359375 -47.75 C 6.359375 -57.257812 8.332031 -65.675781 12.28125 -73 C 16.226562 -80.332031 21.609375 -86.03125 28.421875 -90.09375 C 35.242188 -94.164062 42.773438 -96.203125 51.015625 -96.203125 Z M 83.828125 -47.40625 C 83.828125 -53.9375 82.476562 -59.601562 79.78125 -64.40625 C 77.09375 -69.21875 73.570312 -72.882812 69.21875 -75.40625 C 64.875 -77.925781 60.179688 -79.1875 55.140625 -79.1875 C 50.097656 -79.1875 45.398438 -77.953125 41.046875 -75.484375 C 36.703125 -73.023438 33.179688 -69.421875 30.484375 -64.671875 C 27.796875 -59.921875 26.453125 -54.28125 26.453125 -47.75 C 26.453125 -41.226562 27.796875 -35.503906 30.484375 -30.578125 C 33.179688 -25.648438 36.734375 -21.894531 41.140625 -19.3125 C 45.546875 -16.738281 50.210938 -15.453125 55.140625 -15.453125 C 60.179688 -15.453125 64.875 -16.710938 69.21875 -19.234375 C 73.570312 -21.753906 77.09375 -25.445312 79.78125 -30.3125 C 82.476562 -35.1875 83.828125 -40.882812 83.828125 -47.40625 Z M 83.828125 -47.40625 "/></g></g></g><g fill="#3b3b3b" fill-opacity="1"><g transform="translate(732.439268, 244.733552)"><g><path d="M 52.5625 -78.671875 L 35.046875 -78.671875 L 35.046875 0 L 15.28125 0 L 15.28125 -78.671875 L 4.125 -78.671875 L 4.125 -94.65625 L 15.28125 -94.65625 L 15.28125 -101.34375 C 15.28125 -112.226562 18.171875 -120.160156 23.953125 -125.140625 C 29.742188 -130.117188 38.820312 -132.609375 51.1875 -132.609375 L 51.1875 -116.296875 C 45.238281 -116.296875 41.0625 -115.175781 38.65625 -112.9375 C 36.25 -110.707031 35.046875 -106.84375 35.046875 -101.34375 L 35.046875 -94.65625 L 52.5625 -94.65625 Z M 52.5625 -78.671875 "/></g></g></g><g fill="#3b3b3b" fill-opacity="1"><g transform="translate(789.471005, 244.733552)"><g><path d="M 53.9375 1.546875 C 45.007812 1.546875 36.9375 -0.484375 29.71875 -4.546875 C 22.5 -8.617188 16.828125 -14.347656 12.703125 -21.734375 C 8.585938 -29.117188 6.53125 -37.675781 6.53125 -47.40625 C 6.53125 -57.03125 8.644531 -65.5625 12.875 -73 C 17.113281 -80.445312 22.898438 -86.175781 30.234375 -90.1875 C 37.566406 -94.195312 45.753906 -96.203125 54.796875 -96.203125 C 63.847656 -96.203125 72.035156 -94.195312 79.359375 -90.1875 C 86.691406 -86.175781 92.472656 -80.445312 96.703125 -73 C 100.941406 -65.5625 103.0625 -57.03125 103.0625 -47.40625 C 103.0625 -37.789062 100.882812 -29.257812 96.53125 -21.8125 C 92.1875 -14.375 86.265625 -8.617188 78.765625 -4.546875 C 71.265625 -0.484375 62.988281 1.546875 53.9375 1.546875 Z M 53.9375 -15.453125 C 58.976562 -15.453125 63.703125 -16.65625 68.109375 -19.0625 C 72.515625 -21.46875 76.09375 -25.078125 78.84375 -29.890625 C 81.59375 -34.703125 82.96875 -40.539062 82.96875 -47.40625 C 82.96875 -54.28125 81.648438 -60.09375 79.015625 -64.84375 C 76.378906 -69.59375 72.882812 -73.171875 68.53125 -75.578125 C 64.1875 -77.984375 59.492188 -79.1875 54.453125 -79.1875 C 49.410156 -79.1875 44.742188 -77.984375 40.453125 -75.578125 C 36.160156 -73.171875 32.753906 -69.59375 30.234375 -64.84375 C 27.710938 -60.09375 26.453125 -54.28125 26.453125 -47.40625 C 26.453125 -37.21875 29.054688 -29.34375 34.265625 -23.78125 C 39.484375 -18.226562 46.039062 -15.453125 53.9375 -15.453125 Z M 53.9375 -15.453125 "/></g></g></g><g fill="#3b3b3b" fill-opacity="1"><g transform="translate(899.068159, 244.733552)"><g><path d="M 32.46875 -80.90625 C 35.332031 -85.71875 39.140625 -89.46875 43.890625 -92.15625 C 48.640625 -94.851562 54.28125 -96.203125 60.8125 -96.203125 L 60.8125 -75.921875 L 55.828125 -75.921875 C 48.148438 -75.921875 42.335938 -73.972656 38.390625 -70.078125 C 34.441406 -66.191406 32.46875 -59.4375 32.46875 -49.8125 L 32.46875 0 L 12.890625 0 L 12.890625 -94.65625 L 32.46875 -94.65625 Z M 32.46875 -80.90625 "/></g></g></g><g fill="#3b3b3b" fill-opacity="1"><g transform="translate(965.032588, 244.733552)"><g><path d="M 98.609375 -94.65625 L 98.609375 0 L 79.015625 0 L 79.015625 -11.171875 C 75.921875 -7.273438 71.882812 -4.207031 66.90625 -1.96875 C 61.925781 0.257812 56.628906 1.375 51.015625 1.375 C 43.578125 1.375 36.90625 -0.171875 31 -3.265625 C 25.101562 -6.359375 20.46875 -10.9375 17.09375 -17 C 13.71875 -23.070312 12.03125 -30.40625 12.03125 -39 L 12.03125 -94.65625 L 31.4375 -94.65625 L 31.4375 -41.921875 C 31.4375 -33.441406 33.550781 -26.9375 37.78125 -22.40625 C 42.019531 -17.882812 47.804688 -15.625 55.140625 -15.625 C 62.472656 -15.625 68.285156 -17.882812 72.578125 -22.40625 C 76.867188 -26.9375 79.015625 -33.441406 79.015625 -41.921875 L 79.015625 -94.65625 Z M 98.609375 -94.65625 "/></g></g></g><g fill="#3b3b3b" fill-opacity="1"><g transform="translate(1076.51937, 244.733552)"><g><path d="M 51.015625 -96.203125 C 58.347656 -96.203125 64.847656 -94.738281 70.515625 -91.8125 C 76.179688 -88.894531 80.617188 -85.257812 83.828125 -80.90625 L 83.828125 -94.65625 L 103.578125 -94.65625 L 103.578125 1.546875 C 103.578125 10.242188 101.742188 18 98.078125 24.8125 C 94.421875 31.632812 89.125 36.988281 82.1875 40.875 C 75.257812 44.769531 66.988281 46.71875 57.375 46.71875 C 44.550781 46.71875 33.898438 43.710938 25.421875 37.703125 C 16.953125 31.691406 12.144531 23.535156 11 13.234375 L 30.40625 13.234375 C 31.894531 18.148438 35.070312 22.125 39.9375 25.15625 C 44.800781 28.195312 50.613281 29.71875 57.375 29.71875 C 65.28125 29.71875 71.664062 27.3125 76.53125 22.5 C 81.394531 17.6875 83.828125 10.703125 83.828125 1.546875 L 83.828125 -14.265625 C 80.503906 -9.796875 76.007812 -6.039062 70.34375 -3 C 64.675781 0.03125 58.234375 1.546875 51.015625 1.546875 C 42.773438 1.546875 35.242188 -0.539062 28.421875 -4.71875 C 21.609375 -8.90625 16.226562 -14.75 12.28125 -22.25 C 8.332031 -29.75 6.359375 -38.25 6.359375 -47.75 C 6.359375 -57.257812 8.332031 -65.675781 12.28125 -73 C 16.226562 -80.332031 21.609375 -86.03125 28.421875 -90.09375 C 35.242188 -94.164062 42.773438 -96.203125 51.015625 -96.203125 Z M 83.828125 -47.40625 C 83.828125 -53.9375 82.476562 -59.601562 79.78125 -64.40625 C 77.09375 -69.21875 73.570312 -72.882812 69.21875 -75.40625 C 64.875 -77.925781 60.179688 -79.1875 55.140625 -79.1875 C 50.097656 -79.1875 45.398438 -77.953125 41.046875 -75.484375 C 36.703125 -73.023438 33.179688 -69.421875 30.484375 -64.671875 C 27.796875 -59.921875 26.453125 -54.28125 26.453125 -47.75 C 26.453125 -41.226562 27.796875 -35.503906 30.484375 -30.578125 C 33.179688 -25.648438 36.734375 -21.894531 41.140625 -19.3125 C 45.546875 -16.738281 50.210938 -15.453125 55.140625 -15.453125 C 60.179688 -15.453125 64.875 -16.710938 69.21875 -19.234375 C 73.570312 -21.753906 77.09375 -25.445312 79.78125 -30.3125 C 82.476562 -35.1875 83.828125 -40.882812 83.828125 -47.40625 Z M 83.828125 -47.40625 "/></g></g></g></svg>